<svg xmlns="http://www.w3.org/2000/svg" viewBox="0 0 24 27">
  <g fill="none" fill-rule="evenodd">
    <path fill="#F8E419" d="M8.082 18.86l.002-.002a7.554 7.554 0 0 1-2.195-5.332c0-2.082.84-3.968 2.193-5.333L8.08 8.19a2.977 2.977 0 0 0 0-4.19 2.93 2.93 0 0 0-4.16 0A13.475 13.475 0 0 0 0 13.524a13.47 13.47 0 0 0 3.92 9.526 2.93 2.93 0 0 0 4.163 0 2.977 2.977 0 0 0 0-4.19"/>
    <path fill="#56AED2" d="M8.268 8.14l.003.002a7.448 7.448 0 0 1 5.297-2.212c2.068 0 3.94.847 5.296 2.214l.005-.004a2.926 2.926 0 0 0 4.16 0 2.98 2.98 0 0 0 0-4.193A13.285 13.285 0 0 0 13.565 0a13.28 13.28 0 0 0-9.46 3.947 2.98 2.98 0 0 0 0 4.193 2.926 2.926 0 0 0 4.163 0"/>
    <path fill="#E0534E" d="M18.863 18.65l-.003-.003a7.448 7.448 0 0 1-5.294 2.21 7.436 7.436 0 0 1-5.295-2.212v.004a2.926 2.926 0 0 0-4.16 0 2.98 2.98 0 0 0 0 4.19 13.285 13.285 0 0 0 9.46 3.946 13.28 13.28 0 0 0 9.46-3.948 2.98 2.98 0 0 0 0-4.194 2.926 2.926 0 0 0-4.163 0"/>
    <path fill="#1E78A4" d="M8.27 8.352a2.93 2.93 0 0 1-4.164 0 2.977 2.977 0 0 1 0-4.19 2.93 2.93 0 0 1 4.163 0 2.977 2.977 0 0 1 0 4.19"/>
    <path fill="#BE433B" d="M8.27 22.84a2.93 2.93 0 0 1-4.164 0 2.977 2.977 0 0 1 0-4.19 2.93 2.93 0 0 1 4.163 0 2.977 2.977 0 0 1 0 4.19"/>
  </g>
</svg>
