<svg xmlns="http://www.w3.org/2000/svg" xmlns:xlink="http://www.w3.org/1999/xlink" width="140" height="29" viewBox="0 0 140 29">
  <defs>
    <path id="a" d="M.012.054h139.921v28.362H.013"/>
  </defs>
  <g fill="none" fill-rule="evenodd">
    <mask id="b" fill="#fff">
      <use xlink:href="#a"/>
    </mask>
    <path fill="#F8E419" d="M8.635 19.85l.003-.003a7.89 7.89 0 0 1-2.346-5.611c0-2.191.898-4.177 2.348-5.613l-.004-.004a3.1 3.1 0 0 0 0-4.41 3.163 3.163 0 0 0-4.448 0A14.074 14.074 0 0 0 0 14.235c0 3.916 1.6 7.46 4.188 10.025a3.163 3.163 0 0 0 4.448 0 3.1 3.1 0 0 0 0-4.41l-.001-.001" mask="url(#b)"/>
    <path fill="#56AED2" d="M8.636 8.619l.003.003a8.018 8.018 0 0 1 5.657-2.328c2.208 0 4.21.89 5.658 2.33l.004-.004a3.16 3.16 0 0 0 4.446 0 3.102 3.102 0 0 0 0-4.413A14.303 14.303 0 0 0 14.296.053c-3.948 0-7.52 1.587-10.107 4.154a3.102 3.102 0 0 0 0 4.413 3.16 3.16 0 0 0 4.446 0l.001-.001"/>
    <path fill="#E0534E" d="M19.957 19.573l-.003-.003a8.018 8.018 0 0 1-5.656 2.327c-2.21 0-4.21-.89-5.659-2.329l-.004.004a3.16 3.16 0 0 0-4.446 0 3.102 3.102 0 0 0 0 4.412 14.303 14.303 0 0 0 10.109 4.155c3.947 0 7.52-1.587 10.106-4.155a3.102 3.102 0 0 0 0-4.412 3.16 3.16 0 0 0-4.446 0v.001"/>
    <path fill="#1E78A4" d="M8.636 8.57a3.163 3.163 0 0 1-4.448 0 3.1 3.1 0 0 1 0-4.41 3.163 3.163 0 0 1 4.448 0 3.1 3.1 0 0 1 0 4.41"/>
    <path fill="#BE433B" d="M8.636 23.984a3.163 3.163 0 0 1-4.448 0 3.1 3.1 0 0 1 0-4.41 3.163 3.163 0 0 1 4.448 0 3.1 3.1 0 0 1 0 4.41"/>
    <path fill="#272B30" d="M80.834 12.619h6.7c-.255-1.654-1.637-2.308-3.229-2.308-1.615 0-2.98.745-3.471 2.308zm-32.738-2.103c2.03 0 3.397 1.758 3.397 3.679 0 2.026-1.254 3.651-3.397 3.651-2.144 0-3.396-1.626-3.396-3.651 0-1.998 1.275-3.68 3.396-3.68zm32.67 4.868c.293 1.798 2.02 2.54 3.72 2.54a6.12 6.12 0 0 0 2.452-.543c.125-.059.242-.11.361-.179.403-.23.772-.367 1.133-.002.194.198.389.394.587.588.187.184.356.368.52.573.546.682.163.844-.454 1.258-1.325.887-3.061 1.328-4.65 1.328-4.275 0-7.119-2.565-7.119-6.856 0-4.045 2.827-6.726 6.886-6.726 4.155 0 6.528 2.42 6.604 6.534.02 1.126.07 1.485-1.113 1.485h-8.927zM48.07 7.494c-3.935 0-6.703 2.832-6.703 6.7 0 3.922 2.745 6.701 6.729 6.701 3.978 0 6.756-2.775 6.756-6.7 0-3.878-2.86-6.702-6.782-6.702zm46.918 1.86c1.183-1.114 2.464-1.809 4.138-1.809 3.623 0 5.51 2.945 5.51 6.314v5.676c0 .592-.49 1.077-1.086 1.077h-1.162a1.084 1.084 0 0 1-1.086-1.077v-5.65c0-1.867-1.013-3.317-3.006-3.317-1.947 0-3.19 1.637-3.19 3.471v5.505c0 .586-.483 1.068-1.075 1.068h-1.154a1.076 1.076 0 0 1-1.077-1.068V8.794c0-.588.486-1.068 1.077-1.068h.984c.6 0 1.025.49 1.076 1.06l.051.568zm-35.924 0c1.183-1.114 2.464-1.809 4.138-1.809 3.622 0 5.51 2.945 5.51 6.314v5.677c0 .592-.49 1.076-1.086 1.076h-1.163a1.084 1.084 0 0 1-1.085-1.076v-5.651c0-1.868-1.014-3.317-3.007-3.317-1.946 0-3.188 1.638-3.188 3.472v5.504c0 .587-.485 1.068-1.077 1.068h-1.153c-.593 0-1.077-.48-1.077-1.068V8.793c0-.587.484-1.067 1.077-1.067h.983c.6 0 1.026.49 1.077 1.06l.05.568zm14.554-1.578h2.48c.592 0 1.076.482 1.076 1.07v.73c0 .588-.484 1.069-1.076 1.069h-2.48v5.404c0 1.039.502 1.64 1.565 1.64h.504c.593 0 1.078.478 1.078 1.067v.732c0 .588-.486 1.068-1.078 1.068h-.746c-2.923 0-4.63-1.241-4.63-4.507V5.573c0-.588.485-1.07 1.078-1.07h1.152c.593 0 1.077.482 1.077 1.07v2.203zm35.87 0h2.48c.592 0 1.076.482 1.076 1.07v.73c0 .588-.484 1.069-1.076 1.069h-2.48v5.404c0 1.039.502 1.638 1.565 1.638h.503c.593 0 1.078.48 1.078 1.07v.73c0 .589-.486 1.07-1.078 1.07h-.958a7.578 7.578 0 0 1-.531-.012c-2.685-.164-3.887-1.89-3.887-4.496V5.573c0-.588.485-1.07 1.077-1.07h1.153c.594 0 1.077.482 1.077 1.07v2.203zm8.099.008h2.267c.6 0 1.077.497 1.077 1.087v.746c0 .59-.478 1.087-1.077 1.087h-2.267v8.832c0 .592-.488 1.076-1.086 1.076h-1.162a1.084 1.084 0 0 1-1.086-1.076V7.335c0-2.668 1.51-4.765 4.255-5.02.075-.007.15-.012.222-.015.162-.015.328-.01.487-.006h1.059c.599 0 1.076.498 1.076 1.088v.678c0 .59-.477 1.087-1.076 1.087h-.776a.48.48 0 0 1-.076.004c-1.297 0-1.837.995-1.837 2.184v.449zm13.973 11.222c-1.26 1.192-2.476 1.812-4.27 1.812-3.638 0-5.38-2.98-5.38-6.315V8.828c0-.592.489-1.077 1.086-1.077h1.163c.596 0 1.085.485 1.085 1.077v5.65c0 1.867 1.012 3.317 3.005 3.317 1.95 0 3.19-1.643 3.19-3.485l.001-2.029a1.016 1.016 0 0 1-.027-.238V8.828c0-.592.488-1.077 1.085-1.077h1.161c.598 0 1.087.484 1.087 1.077v10.716c0 .587-.486 1.068-1.078 1.068h-.983c-.6 0-1.026-.49-1.077-1.061l-.048-.545zm6.125 1.606a1.084 1.084 0 0 1-1.085-1.076V5.564c0-.592.489-1.077 1.085-1.077h1.163c.596 0 1.085.485 1.085 1.077v13.972c0 .592-.49 1.076-1.085 1.076h-1.163zm-99.234-3.475c.899-.692 1.029-.295 1.8.462.392.383 1.437 1.036.745 1.604-1.425 1.17-2.708 1.7-4.556 1.7-4.14 0-7.071-3.06-6.851-7.113.098-1.824.81-3.543 2.239-4.737 1.311-1.096 2.939-1.582 4.643-1.55.868.017 1.64.143 2.446.463.52.206 1.029.445 1.476.784.908.688.49 1.096-.22 1.8-.159.158-.312.322-.469.481-.354.359-.606.618-1.095.285-.926-.628-2.1-.966-3.21-.682-3.567.916-3.377 7.22.988 7.22.726 0 1.491-.276 2.064-.717z"/>
  </g>
</svg>
