<svg xmlns="http://www.w3.org/2000/svg" viewBox="0 0 24 24">
  <g fill="none" fill-rule="evenodd">
    <path fill="#A9B9C0" fill-rule="nonzero" d="M12 0C5.38 0 0 5.38 0 12s5.38 12 12 12 12-5.38 12-12S18.62 0 12 0zm5.26 9.38v.34c0 3.48-2.64 7.5-7.48 7.5A7.45 7.45 0 0 1 5.75 16a5.3 5.3 0 0 0 3.9-1.08A2.64 2.64 0 0 1 7.2 13.1c.37.1.8.06 1.16-.04a2.63 2.63 0 0 1-2.1-2.58v-.05c.35.2.76.32 1.2.33a2.63 2.63 0 0 1-.83-3.5A7.46 7.46 0 0 0 12.07 10a2.63 2.63 0 0 1 4.48-2.4c.6-.12 1.95-.27 1.95-.27-.35.53-.72 1.66-1.24 2.03z"/>
    <path d="M0 0h24v24H0z"/>
  </g>
</svg>
