<svg xmlns="http://www.w3.org/2000/svg" viewBox="0 0 17 11">
  <g fill="none" fill-rule="evenodd">
    <path d="M0-3h17v17H0z"/>
    <path fill="#A9B9C0" fill-rule="nonzero" d="M8.5.188C4.958.188 1.934 2.39.708 5.5c1.226 3.11 4.25 5.313 7.792 5.313S15.066 8.61 16.292 5.5C15.066 2.39 12.042.187 8.5.187zm0 8.854A3.543 3.543 0 0 1 4.958 5.5 3.543 3.543 0 0 1 8.5 1.958 3.543 3.543 0 0 1 12.042 5.5 3.543 3.543 0 0 1 8.5 9.042zm0-5.667c-1.176 0-2.125.95-2.125 2.125 0 1.176.95 2.125 2.125 2.125 1.176 0 2.125-.95 2.125-2.125 0-1.176-.95-2.125-2.125-2.125z"/>
  </g>
</svg>
