<svg width="256" height="244" viewBox="0 0 256 244" xmlns="http://www.w3.org/2000/svg" preserveAspectRatio="xMidYMid">
  <defs>
    <linearGradient x1="49.997%" y1="-19.516%" x2="49.997%" y2="129.625%" id="a">
      <stop stop-color="#0994DC" offset="0%"/>
      <stop stop-color="#66CEF5" offset="35.001%"/>
      <stop stop-color="#66CEF5" offset="35.001%"/>
      <stop stop-color="#127BCA" offset="84.616%"/>
      <stop stop-color="#127BCA" offset="84.616%"/>
      <stop stop-color="#127BCA" offset="100%"/>
    </linearGradient>
    <linearGradient x1="50.001%" y1="-19.516%" x2="50.001%" y2="129.624%" id="b">
      <stop stop-color="#0E76BC" offset="0%"/>
      <stop stop-color="#36AEE8" offset="36%"/>
      <stop stop-color="#36AEE8" offset="36%"/>
      <stop stop-color="#00ADEF" offset="84.616%"/>
      <stop stop-color="#00ADEF" offset="84.616%"/>
      <stop stop-color="#00ADEF" offset="100%"/>
    </linearGradient>
    <linearGradient x1="49.999%" y1="110.922%" x2="49.999%" y2="-6.214%" id="c">
      <stop stop-color="#1C63B7" offset="0%"/>
      <stop stop-color="#33BDF2" offset="50%"/>
      <stop stop-color="#33BDF2" stop-opacity=".42" offset="100%"/>
    </linearGradient>
    <linearGradient x1="50.001%" y1="-19.515%" x2="50.001%" y2="129.627%" id="d">
      <stop stop-color="#166AB8" offset="0%"/>
      <stop stop-color="#36AEE8" offset="39.999%"/>
      <stop stop-color="#36AEE8" offset="39.999%"/>
      <stop stop-color="#0798DD" offset="84.616%"/>
      <stop stop-color="#0798DD" offset="84.616%"/>
      <stop stop-color="#0798DD" offset="100%"/>
    </linearGradient>
    <linearGradient x1="49.999%" y1="-19.521%" x2="49.999%" y2="129.627%" id="e">
      <stop stop-color="#124379" offset="0%"/>
      <stop stop-color="#1487CB" offset="39%"/>
      <stop stop-color="#1487CB" offset="39%"/>
      <stop stop-color="#165197" offset="78.023%"/>
      <stop stop-color="#165197" offset="78.023%"/>
      <stop stop-color="#165197" offset="100%"/>
    </linearGradient>
    <linearGradient x1="0%" y1="50.001%" y2="50.001%" id="f">
      <stop stop-color="#33BDF2" stop-opacity=".698" offset="0%"/>
      <stop stop-color="#1DACD8" offset="100%"/>
    </linearGradient>
    <linearGradient x1="50.01%" y1="94.686%" x2="50.01%" y2="-3.025%" id="g">
      <stop stop-color="#136AB4" offset="0%"/>
      <stop stop-color="#59CAF5" stop-opacity=".549" offset="60%"/>
      <stop stop-color="#59CAF5" stop-opacity=".235" offset="100%"/>
    </linearGradient>
    <linearGradient x1="-.001%" y1="50%" x2="99.999%" y2="50%" id="h">
      <stop stop-color="#05A1E6" stop-opacity=".247" offset="0%"/>
      <stop stop-color="#05A1E6" offset="100%"/>
    </linearGradient>
    <linearGradient x1="49.998%" y1="124.314%" x2="49.998%" y2="-9.421%" id="i">
      <stop stop-color="#318ED5" offset="0%"/>
      <stop stop-color="#38A7E4" offset="100%"/>
    </linearGradient>
    <linearGradient x1="49.999%" y1="91.2%" x2="49.999%" y2="-76.785%" id="j">
      <stop stop-color="#05A1E6" offset="0%"/>
      <stop stop-color="#05A1E6" stop-opacity=".549" offset="100%"/>
    </linearGradient>
    <linearGradient x1="50%" y1="100.01%" x2="50%" y2=".01%" id="k">
      <stop stop-color="#1959A6" offset="0%"/>
      <stop stop-color="#05A1E6" offset="50%"/>
      <stop stop-color="#05A1E6" offset="50%"/>
      <stop stop-color="#7EC5EA" offset="91.759%"/>
      <stop stop-color="#7EC5EA" offset="100%"/>
    </linearGradient>
    <linearGradient x1="59.804%" y1="94.568%" x2="38.471%" y2="5.755%" id="l">
      <stop stop-color="#165096" offset="0%"/>
      <stop stop-color="#0D82CA" offset="100%"/>
    </linearGradient>
    <linearGradient x1="49.995%" y1="76.998%" x2="49.995%" y2="-3.299%" id="m">
      <stop stop-color="#05A1E6" offset="0%"/>
      <stop stop-color="#0495D6" offset="87.363%"/>
      <stop stop-color="#0495D6" offset="100%"/>
    </linearGradient>
    <linearGradient x1="65.263%" y1="-4.161%" x2="34.263%" y2="105.844%" id="n">
      <stop stop-color="#38A7E4" stop-opacity=".329" offset="0%"/>
      <stop stop-color="#0E88D3" offset="96.153%"/>
      <stop stop-color="#0E88D3" offset="96.153%"/>
      <stop stop-color="#0E88D3" offset="100%"/>
    </linearGradient>
    <linearGradient x1="50.017%" y1="-.296%" x2="50.017%" y2="101.882%" id="o">
      <stop stop-color="#168CD4" offset="0%"/>
      <stop stop-color="#1C87CC" offset="50%"/>
      <stop stop-color="#154B8D" offset="100%"/>
    </linearGradient>
    <linearGradient x1="16.674%" y1="205.565%" x2="87.813%" y2="-19.836%" id="p">
      <stop stop-color="#97D6EE" offset="0%"/>
      <stop stop-color="#55C1EA" offset="70.329%"/>
      <stop stop-color="#55C1EA" offset="100%"/>
    </linearGradient>
    <linearGradient x1="6.89%" y1="6.3%" x2="75.783%" y2="116.771%" id="q">
      <stop stop-color="#7ACCEC" offset="0%"/>
      <stop stop-color="#3FB7ED" offset="100%"/>
    </linearGradient>
    <linearGradient x1="49.997%" y1="6.363%" x2="49.997%" y2="127.961%" id="r">
      <stop stop-color="#1DA7E7" offset="0%"/>
      <stop stop-color="#37ABE7" stop-opacity="0" offset="100%"/>
    </linearGradient>
  </defs>
  <path d="M214.27 128.006c0-.43-.119-.737-.36-.937-.269-.216-.733-.331-1.379-.331h-.928v2.552h1.12c1.035 0 1.546-.43 1.546-1.284zm1.447 5.32h-1.276l-.814-1.795c-.413-.9-.855-1.35-1.337-1.35h-.687v3.145h-1.052v-7.484h2.107c.936 0 1.64.203 2.122.626.41.364.614.83.614 1.41 0 .516-.167.95-.503 1.31-.327.363-.798.609-1.399.736v.032c.417.098.834.556 1.24 1.382l.985 1.992v-.004zm2.33-3.668c0-1.473-.502-2.716-1.504-3.702-1.006-.985-2.233-1.48-3.68-1.48-1.494 0-2.737.495-3.722 1.489-.986.998-1.477 2.233-1.477 3.693 0 1.493.512 2.74 1.526 3.734 1.002.993 2.229 1.484 3.672 1.484 1.436 0 2.662-.495 3.673-1.501 1.01-.99 1.513-2.233 1.513-3.717zm.708-.033c0 1.653-.568 3.04-1.709 4.155-1.141 1.125-2.54 1.685-4.212 1.685-1.685 0-3.084-.552-4.196-1.636-1.113-1.1-1.665-2.482-1.665-4.159 0-1.64.565-3.018 1.693-4.15 1.129-1.13 2.536-1.693 4.217-1.693 1.648 0 3.03.54 4.15 1.615 1.15 1.104 1.722 2.494 1.722 4.183zM58.8 150.495h-3.628v-20.76c0-1.64.108-3.635.3-5.99h-.08c-.34 1.377-.651 2.375-.925 2.993l-10.543 23.757h-1.767L31.593 126.91c-.297-.659-.609-1.718-.924-3.166h-.078c.11 1.24.173 3.248.173 6.032v20.719h-3.497V119.58h4.785l9.484 21.556c.716 1.624 1.178 2.86 1.403 3.702h.15c.618-1.69 1.108-2.957 1.48-3.792l9.689-21.466h4.54v30.914h.001zM69.957 150.494h-3.525v-22.076h3.525v22.076zm.61-29.99c0 .65-.23 1.194-.683 1.64-.446.446-.998.67-1.644.67-.63 0-1.178-.215-1.628-.645-.45-.434-.67-.986-.67-1.665 0-.638.222-1.182.67-1.623a2.24 2.24 0 0 1 1.628-.655c.646 0 1.198.213 1.644.655.454.441.683.985.683 1.623zM91.988 149.472c-1.693 1.039-3.714 1.554-6.049 1.554-3.165 0-5.713-1.05-7.66-3.149-1.89-2.036-2.842-4.666-2.842-7.889 0-3.615 1.035-6.543 3.12-8.768 2.074-2.229 4.863-3.341 8.372-3.341 1.918 0 3.62.376 5.108 1.12v3.628c-1.648-1.157-3.39-1.73-5.26-1.73-2.249 0-4.077.785-5.496 2.352-1.476 1.603-2.225 3.746-2.225 6.42 0 2.569.683 4.601 2.041 6.102 1.362 1.493 3.174 2.241 5.46 2.241 1.93 0 3.738-.634 5.43-1.897v3.357zM108.85 132c-.622-.479-1.518-.712-2.7-.712-1.435 0-2.642.642-3.619 1.938-1.108 1.448-1.66 3.452-1.66 6.012v11.255h-3.534v-22.076h3.534v4.552h.085c.52-1.612 1.321-2.851 2.392-3.73 1.002-.802 2.135-1.207 3.382-1.207.941 0 1.64.102 2.119.301V132zM128.543 139.496c0-2.826-.638-4.985-1.914-6.466-1.239-1.423-2.97-2.135-5.198-2.135-2.196 0-3.959.72-5.276 2.16-1.394 1.537-2.09 3.709-2.09 6.527 0 2.642.663 4.715 2 6.195 1.33 1.489 3.12 2.233 5.366 2.233 2.323 0 4.102-.756 5.32-2.261 1.195-1.472 1.792-3.554 1.792-6.253m3.623-.125c0 3.518-.993 6.344-2.973 8.462-1.987 2.127-4.662 3.19-8.024 3.19-3.312 0-5.95-1.063-7.884-3.19-1.894-2.049-2.847-4.756-2.847-8.122 0-3.84 1.076-6.801 3.235-8.903 1.996-1.95 4.666-2.932 8.012-2.932 3.292 0 5.864 1.026 7.717 3.059 1.836 2.044 2.764 4.858 2.764 8.436M149.69 144.588c0 1.807-.675 3.304-2.029 4.498-1.476 1.292-3.504 1.939-6.056 1.939-2.09 0-3.922-.438-5.476-1.33v-3.799c1.73 1.407 3.64 2.115 5.738 2.115 2.797 0 4.2-1.03 4.2-3.084 0-.863-.308-1.579-.929-2.13-.621-.565-1.828-1.24-3.623-2.03-1.849-.809-3.166-1.639-3.942-2.502-.933-1.023-1.403-2.351-1.403-3.987 0-1.833.732-3.358 2.18-4.573 1.451-1.218 3.316-1.828 5.606-1.828 1.755 0 3.325.344 4.72 1.035v3.558c-1.456-1.051-3.12-1.575-5.01-1.575-1.17 0-2.11.292-2.81.86-.707.58-1.063 1.32-1.063 2.224 0 .978.298 1.738.888 2.282.523.503 1.635 1.117 3.312 1.832 1.885.79 3.247 1.608 4.077 2.446 1.076 1.06 1.62 2.409 1.62 4.049M171.285 139.496c0-2.826-.638-4.985-1.918-6.466-1.235-1.423-2.97-2.135-5.194-2.135-2.196 0-3.959.72-5.284 2.16-1.39 1.537-2.082 3.709-2.082 6.527 0 2.642.663 4.715 1.988 6.195 1.345 1.489 3.137 2.233 5.378 2.233 2.327 0 4.102-.756 5.32-2.261 1.194-1.472 1.792-3.554 1.792-6.253m3.631-.125c0 3.518-1.002 6.344-2.985 8.462-1.98 2.127-4.654 3.19-8.016 3.19-3.317 0-5.955-1.063-7.889-3.19-1.893-2.049-2.846-4.756-2.846-8.122 0-3.84 1.083-6.801 3.23-8.903 1.996-1.95 4.671-2.932 8.02-2.932 3.293 0 5.86 1.026 7.71 3.059 1.84 2.044 2.776 4.858 2.776 8.436M190.486 120.917c-.695-.385-1.467-.581-2.347-.581-2.474 0-3.701 1.558-3.701 4.679v3.402h5.173v2.994h-5.173v19.082H180.9V131.41h-3.754v-2.994h3.754v-3.578c0-2.43.745-4.336 2.258-5.71 1.296-1.194 2.883-1.787 4.768-1.787 1.093 0 1.943.131 2.56.385v3.19zM204.433 150.271c-.834.479-1.947.716-3.321.716-3.852 0-5.778-2.172-5.778-6.515v-13.058h-3.787v-2.998h3.787v-5.386c1.128-.356 2.302-.744 3.541-1.145v6.531h5.558v2.998h-5.558v12.457c0 1.48.242 2.54.748 3.153.512.634 1.346.945 2.524.945.879 0 1.64-.236 2.286-.712v3.014z"/>
  <g>
    <path d="M13.414 236.653c0 1.73-.617 3.226-1.864 4.49-1.244 1.26-2.753 1.894-4.524 1.894-1.73 0-3.202-.634-4.408-1.894-1.207-1.264-1.808-2.76-1.808-4.49 0-1.78.601-3.28 1.808-4.523 1.206-1.248 2.678-1.865 4.408-1.865 1.771 0 3.28.626 4.524 1.89 1.247 1.263 1.864 2.764 1.864 4.498M92.531 241.737H81.007l-41.833-64.604a29.646 29.646 0 0 1-2.536-5.088h-.344c.298 1.73.45 5.443.45 11.132v58.56h-9.5v-81.053h12.33l40.582 63.586c1.616 2.523 2.72 4.33 3.28 5.419h.226c-.377-2.332-.573-6.307-.573-11.918v-57.087h9.443v81.053zM153.436 241.737h-42.958v-81.053h41.093v8.589h-31.6v26.962h29.282v8.593H119.97v28.316h33.465v8.593zM218.595 169.274h-23.347v72.464h-9.497v-72.464H162.36v-8.593h56.236v8.593z"/>
  </g>
  <g>
    <path d="M88.5 20.689c9.164 28.026 12.636 78.022 39.436 78.022 2.04 0 4.102-.2 6.171-.594-24.362-5.68-27.25-55.132-42.115-80.741a123.34 123.34 0 0 0-3.493 3.313" fill="url(#a)" transform="translate(.81)"/>
    <path d="M91.992 17.376c14.866 25.609 17.753 75.061 42.115 80.741 1.914-.351 3.832-.883 5.754-1.554C117.994 85.85 111.95 37.828 95.067 14.71a105.202 105.202 0 0 0-3.075 2.667" fill="url(#b)" transform="translate(.81)"/>
    <path d="M114.221 2.145c-2.036 0-4.102.2-6.175.594-5.423 1.022-10.931 3.357-16.485 6.89 1.517 1.497 2.96 3.21 4.318 5.08 5.648-4.687 11.26-8.15 16.85-10.232a37.568 37.568 0 0 1 6.285-1.747 19.364 19.364 0 0 0-4.793-.585" fill="#14559A"/>
    <path d="M156.931 86.687a98.185 98.185 0 0 0 6.724-5.893c-9.312-27.896-12.645-78.607-39.633-78.607-1.93 0-3.877.18-5.82.54 24.583 6.114 27.732 59.598 38.73 83.96" fill="url(#c)" transform="translate(.81)"/>
    <path d="M119.013 2.728a19.382 19.382 0 0 0-4.793-.584l10.613.039c-1.93 0-3.877.18-5.82.544" fill="#3092C4"/>
    <path d="M157.27 92.613c-1.055-1.006-2.057-2.11-3.043-3.288-4.54 3.214-9.062 5.652-13.556 7.238a20.881 20.881 0 0 0 5.054 1.722 21.42 21.42 0 0 0 4.307.426c5.042 0 9.03-.597 12.424-2.225-1.869-1.01-3.583-2.32-5.186-3.873" fill="#1969BC"/>
    <path d="M111.917 4.481c22.018 11.516 23.932 63.668 41.501 84.844a74.585 74.585 0 0 0 3.51-2.638c-10.998-24.362-14.143-77.85-38.721-83.96a38.06 38.06 0 0 0-6.29 1.754" fill="url(#d)" transform="translate(.81)"/>
    <path d="M95.067 14.71c16.882 23.118 22.927 71.139 44.794 81.853 4.495-1.586 9.018-4.024 13.557-7.238-17.569-21.176-19.483-73.328-41.501-84.844-5.59 2.078-11.202 5.541-16.85 10.228" fill="url(#e)" transform="translate(.81)"/>
    <path d="M77.698 20.014c-2.646 5.983-5.349 13.847-8.617 24.112C75.58 34.97 82.058 27.08 88.5 20.69c-.887-2.728-1.84-5.243-2.867-7.485a96.763 96.763 0 0 0-7.934 6.81" fill="url(#f)" transform="translate(.81)"/>
    <path d="M88.789 11.479a90.096 90.096 0 0 0-2.344 1.726c1.027 2.241 1.976 4.756 2.863 7.484a135.88 135.88 0 0 1 3.492-3.313c-1.247-2.143-2.572-4.122-4.011-5.897" fill="#2B74B1"/>
    <path d="M91.56 9.63a76.239 76.239 0 0 0-2.772 1.848c1.44 1.775 2.765 3.754 4.016 5.901a93.62 93.62 0 0 1 3.076-2.67c-1.358-1.869-2.802-3.583-4.32-5.08" fill="#125A9E"/>
    <path d="M240.937.011c-12.453 48.025-38.463 86.598-60.27 96.323h-.04c-.397.18-.79.344-1.178.503-.054.033-.103.037-.144.056-.114.046-.22.082-.335.128-.054.032-.102.043-.151.062-.184.066-.364.121-.544.193-.078.033-.151.053-.225.079a2.734 2.734 0 0 1-.27.088c-.082.032-.168.056-.262.092-.078.032-.16.046-.233.078-.16.046-.306.085-.466.14-.066 0-.127.036-.196.054-.099.032-.21.055-.316.085-.073.032-.134.043-.212.059-.11.032-.233.062-.344.088l-.417.092a8.879 8.879 0 0 0 3.12.548c20.678 0 41.526-37.056 76.023-98.679h-13.545l.005.011z" fill="url(#g)" transform="translate(.81)"/>
    <path d="M64.591 4.094c.013 0 .03-.032.037-.032.017 0 .042 0 .05-.032h.026c.114-.04.22-.085.335-.128.03 0 .045 0 .066-.032.029 0 .057-.033.086-.037.122-.039.245-.085.36-.127h.019c.274-.082.528-.184.793-.279.038 0 .074-.032.119-.032.11-.036.225-.075.34-.101.053-.033.106-.033.155-.05.118-.035.233-.075.343-.101.05 0 .094-.033.131-.036.38-.105.757-.203 1.137-.294.053 0 .098-.033.155-.036.11-.032.213-.05.332-.066.049-.032.106-.032.163-.049.11-.032.217-.036.336-.062h.077c.23-.047.463-.085.692-.128h.139c.11-.032.208-.036.319-.056.06 0 .122-.032.18-.032.102 0 .204-.033.306-.046.054 0 .106 0 .168-.033.241-.032.49-.045.744-.065a22.972 22.972 0 0 0-2.2-.115c-23.286 0-55.37 43.207-69.822 99.161h2.785c4.625-8.248 8.78-16.051 12.58-23.376 10.121-39.633 30.737-66.661 49.05-73.822" fill="url(#h)" transform="translate(.81)"/>
    <path d="M78.509 20.014a96.72 96.72 0 0 1 7.934-6.81 37.464 37.464 0 0 0-1.89-3.652c-2.13 2.585-4.077 5.996-6.044 10.462" fill="#0D82CA"/>
    <path d="M80.422 4.422c1.521 1.276 2.883 3.03 4.13 5.133.393-.483.79-.929 1.203-1.346-1.73-1.615-3.6-2.94-5.628-3.938.082.045.164.082.249.118 0 0 .032.032.046.032" fill="#0D82CA"/>
    <path d="M15.54 77.915C36.774 36.998 46.834 11.102 64.591 4.092c-18.309 7.166-38.929 34.194-49.05 73.823" fill="url(#i)" transform="translate(.81)"/>
    <path d="M85.753 8.208c-.413.421-.805.863-1.202 1.346a37.992 37.992 0 0 1 1.894 3.651 90.096 90.096 0 0 1 2.343-1.725 31.882 31.882 0 0 0-3.035-3.272" fill="#127BCA"/>
    <path d="M25.18 101.107c-.131.033-.262.033-.385.046h-.073c-.111 0-.226.033-.328.033h-.053c-.266.032-.528.032-.781.052h-.082c21.491-.601 31.314-11.361 36.19-26.967 3.705-11.831 6.747-21.798 9.414-30.161-9.002 12.67-18.044 27.773-27.135 44.692-4.384 8.154-11.05 11.56-16.768 12.29" fill="url(#j)" transform="translate(.81)"/>
    <path d="M25.18 101.099c5.717-.728 12.383-4.13 16.767-12.29 9.091-16.914 18.138-32.021 27.13-44.691 3.272-10.27 5.972-18.13 8.622-24.113-17.925 17.062-35.92 45.432-52.52 81.086" fill="url(#k)" transform="translate(.81)"/>
    <path d="M16.35 77.916c-3.8 7.324-7.955 15.127-12.58 23.376h8.101A198.004 198.004 0 0 1 16.35 77.92" fill="#05A1E6"/>
    <path d="M71.454 2.326c-.066 0-.115.032-.172.032-.098.033-.2.033-.303.043-.06 0-.118 0-.18.033-.11.032-.212.035-.319.056-.049 0-.098 0-.139.032-.233.039-.462.082-.69.121h-.078c-.119.033-.226.05-.336.066-.057.032-.114.032-.168.045-.11.033-.22.046-.327.066-.057.032-.102.032-.155.035-.38.092-.757.19-1.137.295-.04 0-.082.032-.131.039-.114.032-.225.065-.344.101-.049.033-.106.033-.155.046a9.466 9.466 0 0 0-.34.101c-.044 0-.081.032-.122.032-.262.098-.52.197-.79.278-.114.036-.237.082-.36.125-.049.032-.093.04-.15.062-.115.036-.23.082-.336.124-.04.033-.082.036-.11.053-17.757 7.01-27.818 32.905-49.051 73.822a197.146 197.146 0 0 0-4.478 23.373h1.137c3.202 0 4.106-.033 7.79-.033H23.581c.253-.032.515-.032.78-.053h.05c.11 0 .22-.032.327-.032h.078c.118 0 .253-.032.384-.046 16.6-35.654 34.594-64.024 52.52-81.086 1.97-4.465 3.913-7.876 6.04-10.457-1.244-2.102-2.606-3.86-4.127-5.136 0 0-.041 0-.044-.033-.087-.035-.168-.078-.254-.12-.086-.047-.16-.083-.25-.128a2.707 2.707 0 0 1-.245-.118c-.106-.033-.192-.079-.286-.121-.078-.033-.147-.066-.225-.098a9.571 9.571 0 0 1-.47-.197c-.07-.032-.135-.05-.2-.075a6.68 6.68 0 0 1-.353-.14c-.057-.033-.122-.04-.188-.063-.167-.056-.331-.115-.486-.167h-.041c-.188-.062-.372-.108-.564-.16-.045-.033-.082-.033-.127-.04-.168-.045-.315-.09-.474-.133-.04 0-.078-.033-.11-.033a16.794 16.794 0 0 0-1.183-.258c-.04 0-.081-.033-.122-.033a6.982 6.982 0 0 0-.511-.082c-.042-.032-.066-.032-.102-.032a13.62 13.62 0 0 0-.606-.079h-.106c-.164-.032-.315-.035-.466-.052-.258.032-.503.046-.745.069" fill="url(#l)" transform="translate(.81)"/>
    <path d="M192.294 26.598c-4.085 13.087-7.394 23.883-10.273 32.766 11.21-15.426 22.252-34.832 32.767-57.226-12.265 3.852-18.809 12.67-22.494 24.46" fill="url(#m)" transform="translate(.81)"/>
    <path d="M182.377 95.516c-.572.292-1.145.569-1.71.818 21.807-9.725 47.817-48.298 60.27-96.323h-2.524c-28.61 51.108-37.812 85.322-56.036 95.505" fill="url(#n)" transform="translate(.81)"/>
    <path d="M168.948 91.223c4.744-5.791 8.609-15.635 13.885-31.859-6.086 8.36-12.212 15.545-18.343 21.406 0 .032 0 .032-.032.052 1.338 4.008 2.806 7.545 4.478 10.4" fill="#079AE1"/>
    <path d="M168.948 91.223c-1.615 1.97-3.325 3.472-5.226 4.584-.418.242-.839.47-1.268.68a18.375 18.375 0 0 0 6.653 2.097c.36.036.716.069 1.088.095h.066c.167 0 .344 0 .524.032H172.559c.065 0 .133 0 .199-.032.127 0 .262 0 .392-.033h.194c.134 0 .281-.032.425-.046h.033c.042 0 .088-.032.13-.032.15-.033.308-.046.455-.069h.134c.166-.032.339-.053.51-.085h.083c.343-.066.678-.13 1.018-.216-2.814-1.03-5.17-3.46-7.198-6.92" fill="#1969BC"/>
    <path d="M128.746 98.711c2.041 0 4.102-.2 6.172-.597 1.914-.347 3.832-.88 5.754-1.55a20.92 20.92 0 0 0 5.05 1.722 21.46 21.46 0 0 0 4.311.425h-21.287z" fill="#1E5CB3"/>
    <path d="M150.033 98.711c5.039 0 9.03-.597 12.42-2.225a18.38 18.38 0 0 0 6.654 2.099c.36.035.716.068 1.088.094h.066c.167 0 .344 0 .524.033h.611-21.377.014z" fill="#1E5CB3"/>
    <path d="M171.408 98.711h1.166c.07 0 .134 0 .2-.032.127 0 .262 0 .397-.033h.193c.134 0 .281-.032.421-.045h.036c.043 0 .085-.032.128-.032.15-.033.307-.046.454-.07.049 0 .088 0 .14-.032.167-.032.34-.049.512-.081h.082c.343-.066.678-.131 1.018-.216a8.883 8.883 0 0 0 3.12.548l-7.86.032-.007-.039z" fill="#1D60B5"/>
    <path d="M164.471 80.823v-.033a98.108 98.108 0 0 1-6.723 5.893 77.224 77.224 0 0 1-3.513 2.638c.985 1.178 1.988 2.282 3.043 3.289 1.603 1.553 3.316 2.862 5.185 3.872.426-.21.851-.438 1.264-.679 1.906-1.112 3.615-2.613 5.23-4.584-1.672-2.855-3.14-6.392-4.478-10.4" fill="#175FAB"/>
    <path d="M230.422.011h-12.701c-.686.033-1.353.056-2.011.098-.311.667-.63 1.334-.937 2.005-10.514 22.394-21.556 41.8-32.766 57.226-5.272 16.223-9.14 26.067-13.884 31.858 2.028 3.46 4.388 5.893 7.193 6.924.082-.033.148-.033.221-.05h.046c.049 0 .102-.032.155-.032.114-.033.237-.053.352-.088.073-.033.134-.036.208-.06.107-.032.217-.055.315-.081.066-.033.131-.043.196-.056.164-.053.311-.092.467-.141.073-.032.151-.06.233-.079.09-.032.18-.055.262-.094.094-.033.188-.05.27-.085.073-.033.15-.053.22-.082.184-.066.364-.121.548-.193.05 0 .099-.046.152-.056.11-.046.225-.082.335-.131.04-.033.09-.036.143-.053.385-.16.781-.324 1.178-.503h.041a33.419 33.419 0 0 0 1.706-.818c18.227-10.183 27.43-44.397 56.04-95.505h-7.991l.01-.004z" fill="url(#o)" transform="translate(.81)"/>
    <path d="M73.01 2.257c.045 0 .085 0 .13.032.11 0 .22 0 .331.036h.11c.201.032.402.05.606.079.037 0 .07 0 .102.032.168.032.34.06.511.085.038 0 .086.033.127.033.393.078.794.16 1.178.261.037 0 .074.033.106.033.164.039.311.088.475.134.05 0 .086.032.13.04.193.049.373.098.561.16.008 0 .02 0 .041.032.16.049.323.111.491.167.066.032.127.046.188.062.115.05.242.098.352.144.066 0 .13.046.2.07.151.068.31.13.466.195.082.033.151.07.23.099.09.046.183.088.281.12.082.04.172.082.25.118.086.047.167.082.25.128 2.028.998 3.897 2.327 5.627 3.939a18.272 18.272 0 0 1 1.995-1.812C83.965 3.76 79.68 2.23 74.735 2.23c-.572 0-1.145.033-1.726.076" fill="#7DCBEC"/>
    <path d="M85.753 8.208a31.884 31.884 0 0 1 3.035 3.272A70.897 70.897 0 0 1 91.56 9.63a29.254 29.254 0 0 0-3.816-3.235 17.858 17.858 0 0 0-1.992 1.812" fill="#5EC5ED"/>
    <path d="M72.198 6.285c.58.049 1.153.07 1.726.07 4.944 0 9.23-1.53 13.013-4.21 3.992 3.15 8.817 4.25 15.52 4.25h-32.46c.75 0 1.481-.045 2.201-.11" fill="url(#p)" transform="matrix(1 0 0 -1 .81 8.541)"/>
    <path d="M102.457 9.63c-6.703 0-11.528-1.1-15.52-4.25a29.485 29.485 0 0 0 3.812-3.234c5.557 3.533 11.062 5.873 16.49 6.895a33.46 33.46 0 0 0 6.17.589h-10.952z" fill="url(#q)" transform="matrix(1 0 0 -1 .81 11.776)"/>
    <path d="M182.021 59.372c2.883-8.89 6.184-19.683 10.277-32.774 3.69-11.795 10.22-20.612 22.485-24.46.324-.659.63-1.338.945-2.004-19.994 1.198-29.339 11.369-34.042 26.431-8.224 26.296-13.206 43.342-18.003 54.204 6.127-5.856 12.253-13.046 18.338-21.397" fill="url(#r)" transform="translate(.81)"/>
    <path d="M212.165 91.706h-2.266v7.043h-.924v-7.043H206.7v-.838h5.464v.838zM221.442 98.747h-.92v-5.292c0-.417.032-.928.075-1.53-.095.36-.173.61-.245.77l-2.683 6.052h-.45l-2.69-6.007c-.08-.167-.158-.438-.243-.814h-.032c.032.317.043.83.043 1.542v5.28h-.884v-7.881h1.22l2.416 5.5c.183.413.298.732.356.945h.036c.16-.434.29-.757.38-.97l2.466-5.475h1.161v7.88h-.006z"/>
  </g>
</svg>
