<svg width="171" height="43" viewBox="0 0 171 43" xmlns="http://www.w3.org/2000/svg">
  <title>
    the-example-app-logo-swift
  </title>
  <g fill="none" fill-rule="evenodd">
    <g transform="translate(0 2)" fill-rule="nonzero">
      <path fill="#D9453F" d="M3.75 37v-7.1H28V37z"/>
      <circle fill="#F5A623" cx="9.3" cy="14.3" r="9.3"/>
      <path fill="#3C80CF" d="M35 27.6L19 .4h16z"/>
    </g>
    <path d="M53.14 31.88c0-.52-.163-.967-.49-1.34-.327-.373-.817-.56-1.47-.56-.32 0-.613.05-.88.15-.267.1-.5.237-.7.41-.2.173-.36.377-.48.61-.12.233-.187.477-.2.73h4.22zm3.02 1.26v.4c0 .133-.007.26-.02.38h-7.22c.027.28.11.533.25.76.14.227.32.423.54.59.22.167.467.297.74.39.273.093.557.14.85.14.52 0 .96-.097 1.32-.29.36-.193.653-.443.88-.75l2.28 1.44a4.613 4.613 0 0 1-1.85 1.57c-.767.367-1.657.55-2.67.55a6.371 6.371 0 0 1-2.12-.35 5.148 5.148 0 0 1-1.75-1.02 4.723 4.723 0 0 1-1.18-1.65c-.287-.653-.43-1.4-.43-2.24 0-.813.14-1.55.42-2.21.28-.66.66-1.22 1.14-1.68a5.082 5.082 0 0 1 1.7-1.07 5.814 5.814 0 0 1 2.12-.38c.733 0 1.407.123 2.02.37s1.14.603 1.58 1.07c.44.467.783 1.033 1.03 1.7s.37 1.427.37 2.28zm8.4 4.86l-2.14-3.06-2.2 3.06h-3.8l3.98-5.22-3.6-4.74h3.82l1.86 2.66 1.88-2.66h3.7l-3.58 4.74L68.42 38h-3.86zm10.96-4.34h-.42c-.36 0-.723.017-1.09.05a4.483 4.483 0 0 0-.98.19c-.287.093-.523.23-.71.41-.187.18-.28.417-.28.71 0 .187.043.347.13.48.087.133.197.24.33.32a1.4 1.4 0 0 0 .46.17c.173.033.34.05.5.05.667 0 1.177-.183 1.53-.55.353-.367.53-.863.53-1.49v-.34zM69.5 29.4c.587-.56 1.27-.98 2.05-1.26.78-.28 1.577-.42 2.39-.42.84 0 1.55.103 2.13.31.58.207 1.05.527 1.41.96.36.433.623.98.79 1.64.167.66.25 1.443.25 2.35V38h-3v-1.06h-.06c-.253.413-.637.733-1.15.96-.513.227-1.07.34-1.67.34-.4 0-.813-.053-1.24-.16a3.632 3.632 0 0 1-1.17-.52 2.816 2.816 0 0 1-.87-.96c-.227-.4-.34-.893-.34-1.48 0-.72.197-1.3.59-1.74.393-.44.9-.78 1.52-1.02s1.31-.4 2.07-.48c.76-.08 1.5-.12 2.22-.12v-.16c0-.493-.173-.857-.52-1.09-.347-.233-.773-.35-1.28-.35-.467 0-.917.1-1.35.3-.433.2-.803.44-1.11.72L69.5 29.4zM93.68 38v-5.44c0-.28-.02-.55-.06-.81a1.934 1.934 0 0 0-.22-.67 1.265 1.265 0 0 0-.43-.45c-.18-.113-.417-.17-.71-.17-.28 0-.523.06-.73.18-.207.12-.38.28-.52.48a2.1 2.1 0 0 0-.31.69c-.067.26-.1.53-.1.81V38h-3.28v-5.68c0-.573-.113-1.027-.34-1.36-.227-.333-.587-.5-1.08-.5-.52 0-.923.207-1.21.62-.287.413-.43.92-.43 1.52V38h-3.3v-9.96h3.18v1.38h.04c.12-.213.27-.42.45-.62s.397-.377.65-.53a3.596 3.596 0 0 1 1.88-.51c.72 0 1.33.147 1.83.44.5.293.89.713 1.17 1.26.333-.52.76-.933 1.28-1.24.52-.307 1.153-.46 1.9-.46.68 0 1.25.123 1.71.37.46.247.83.567 1.11.96.28.393.483.833.61 1.32.127.487.19.963.19 1.43V38h-3.28zm16.84-5.02c0 .693-.107 1.36-.32 2a5.142 5.142 0 0 1-.93 1.69 4.594 4.594 0 0 1-1.49 1.17c-.587.293-1.253.44-2 .44a4.182 4.182 0 0 1-1.74-.37c-.547-.247-.973-.583-1.28-1.01h-.04v5.9h-3.28V28.04h3.12v1.22h.06c.307-.4.73-.75 1.27-1.05.54-.3 1.177-.45 1.91-.45.72 0 1.373.14 1.96.42.587.28 1.083.66 1.49 1.14.407.48.72 1.037.94 1.67.22.633.33 1.297.33 1.99zm-3.18 0c0-.32-.05-.633-.15-.94a2.442 2.442 0 0 0-.44-.81 2.225 2.225 0 0 0-.73-.57 2.252 2.252 0 0 0-1.02-.22c-.373 0-.707.073-1 .22-.293.147-.543.34-.75.58-.207.24-.367.513-.48.82a2.692 2.692 0 0 0 0 1.88c.113.307.273.58.48.82.207.24.457.433.75.58.293.147.627.22 1 .22.387 0 .727-.073 1.02-.22.293-.147.537-.34.73-.58.193-.24.34-.517.44-.83.1-.313.15-.63.15-.95zm5.28 5.02V22.88h3.32V38h-3.32zm12.78-6.12c0-.52-.163-.967-.49-1.34-.327-.373-.817-.56-1.47-.56-.32 0-.613.05-.88.15-.267.1-.5.237-.7.41-.2.173-.36.377-.48.61-.12.233-.187.477-.2.73h4.22zm3.02 1.26v.4c0 .133-.007.26-.02.38h-7.22c.027.28.11.533.25.76.14.227.32.423.54.59.22.167.467.297.74.39.273.093.557.14.85.14.52 0 .96-.097 1.32-.29.36-.193.653-.443.88-.75l2.28 1.44a4.613 4.613 0 0 1-1.85 1.57c-.767.367-1.657.55-2.67.55a6.371 6.371 0 0 1-2.12-.35 5.148 5.148 0 0 1-1.75-1.02 4.723 4.723 0 0 1-1.18-1.65c-.287-.653-.43-1.4-.43-2.24 0-.813.14-1.55.42-2.21.28-.66.66-1.22 1.14-1.68a5.082 5.082 0 0 1 1.7-1.07 5.814 5.814 0 0 1 2.12-.38c.733 0 1.407.123 2.02.37s1.14.603 1.58 1.07c.44.467.783 1.033 1.03 1.7s.37 1.427.37 2.28zm12.92.52h-.42c-.36 0-.723.017-1.09.05a4.483 4.483 0 0 0-.98.19c-.287.093-.523.23-.71.41-.187.18-.28.417-.28.71 0 .187.043.347.13.48.087.133.197.24.33.32a1.4 1.4 0 0 0 .46.17c.173.033.34.05.5.05.667 0 1.177-.183 1.53-.55.353-.367.53-.863.53-1.49v-.34zm-6.02-4.26c.587-.56 1.27-.98 2.05-1.26.78-.28 1.577-.42 2.39-.42.84 0 1.55.103 2.13.31.58.207 1.05.527 1.41.96.36.433.623.98.79 1.64.167.66.25 1.443.25 2.35V38h-3v-1.06h-.06c-.253.413-.637.733-1.15.96-.513.227-1.07.34-1.67.34-.4 0-.813-.053-1.24-.16a3.632 3.632 0 0 1-1.17-.52 2.816 2.816 0 0 1-.87-.96c-.227-.4-.34-.893-.34-1.48 0-.72.197-1.3.59-1.74.393-.44.9-.78 1.52-1.02s1.31-.4 2.07-.48c.76-.08 1.5-.12 2.22-.12v-.16c0-.493-.173-.857-.52-1.09-.347-.233-.773-.35-1.28-.35-.467 0-.917.1-1.35.3-.433.2-.803.44-1.11.72l-1.66-1.78zm22.54 3.58c0 .693-.107 1.36-.32 2a5.142 5.142 0 0 1-.93 1.69 4.594 4.594 0 0 1-1.49 1.17c-.587.293-1.253.44-2 .44a4.182 4.182 0 0 1-1.74-.37c-.547-.247-.973-.583-1.28-1.01h-.04v5.9h-3.28V28.04h3.12v1.22h.06c.307-.4.73-.75 1.27-1.05.54-.3 1.177-.45 1.91-.45.72 0 1.373.14 1.96.42.587.28 1.083.66 1.49 1.14.407.48.72 1.037.94 1.67.22.633.33 1.297.33 1.99zm-3.18 0c0-.32-.05-.633-.15-.94a2.442 2.442 0 0 0-.44-.81 2.225 2.225 0 0 0-.73-.57 2.252 2.252 0 0 0-1.02-.22c-.373 0-.707.073-1 .22-.293.147-.543.34-.75.58-.207.24-.367.513-.48.82a2.692 2.692 0 0 0 0 1.88c.113.307.273.58.48.82.207.24.457.433.75.58.293.147.627.22 1 .22.387 0 .727-.073 1.02-.22.293-.147.537-.34.73-.58.193-.24.34-.517.44-.83.1-.313.15-.63.15-.95zm16.32 0c0 .693-.107 1.36-.32 2a5.142 5.142 0 0 1-.93 1.69 4.594 4.594 0 0 1-1.49 1.17c-.587.293-1.253.44-2 .44a4.182 4.182 0 0 1-1.74-.37c-.547-.247-.973-.583-1.28-1.01h-.04v5.9h-3.28V28.04h3.12v1.22h.06c.307-.4.73-.75 1.27-1.05.54-.3 1.177-.45 1.91-.45.72 0 1.373.14 1.96.42.587.28 1.083.66 1.49 1.14.407.48.72 1.037.94 1.67.22.633.33 1.297.33 1.99zm-3.18 0c0-.32-.05-.633-.15-.94a2.442 2.442 0 0 0-.44-.81 2.225 2.225 0 0 0-.73-.57 2.252 2.252 0 0 0-1.02-.22c-.373 0-.707.073-1 .22-.293.147-.543.34-.75.58-.207.24-.367.513-.48.82a2.692 2.692 0 0 0 0 1.88c.113.307.273.58.48.82.207.24.457.433.75.58.293.147.627.22 1 .22.387 0 .727-.073 1.02-.22.293-.147.537-.34.73-.58.193-.24.34-.517.44-.83.1-.313.15-.63.15-.95z" fill="#000"/>
    <path d="M53.02 16H47.4l.1-.58c.32-.12.637-.217.95-.29.313-.073.657-.137 1.03-.19L52 3.04h-3.06L47.28 5.9h-.52c.013-.267.043-.57.09-.91.047-.34.097-.687.15-1.04.053-.353.11-.7.17-1.04.06-.34.123-.643.19-.91h11.6c-.053.267-.12.567-.2.9a46.818 46.818 0 0 1-.55 2.07c-.1.34-.197.65-.29.93h-.52l-.42-2.86h-3.06l-2.52 11.9c.32.067.623.133.91.2.287.067.557.16.81.28l-.1.58zm6.24-13.82v-.46c.2-.08.423-.163.67-.25.247-.087.503-.167.77-.24.267-.073.527-.133.78-.18.253-.047.493-.077.72-.09l.42.18-1.8 8.4h.1c.253-.533.54-1.03.86-1.49.32-.46.657-.86 1.01-1.2.353-.34.723-.607 1.11-.8.387-.193.78-.29 1.18-.29.613 0 1.057.177 1.33.53.273.353.41.79.41 1.31 0 .36-.033.747-.1 1.16-.067.413-.147.813-.24 1.2l-1.14 4.92h1.48v.52a3.298 3.298 0 0 1-.96.52c-.373.133-.747.2-1.12.2-.387 0-.653-.08-.8-.24a.757.757 0 0 1-.22-.52c0-.24.033-.51.1-.81.067-.3.133-.603.2-.91l.72-3.34c.093-.413.177-.8.25-1.16.073-.36.11-.707.11-1.04 0-.307-.067-.567-.2-.78-.133-.213-.313-.32-.54-.32-.413 0-.813.147-1.2.44a6.226 6.226 0 0 0-1.08 1.06 9.592 9.592 0 0 0-.88 1.29c-.253.447-.447.817-.58 1.11L59.56 16h-1.68l2.74-13.64-1.36-.18zM75.9 14.22c-.12.253-.293.5-.52.74a4.1 4.1 0 0 1-1.84 1.11c-.387.113-.8.17-1.24.17-1.107 0-1.957-.317-2.55-.95-.593-.633-.89-1.51-.89-2.63 0-.947.133-1.84.4-2.68.267-.84.64-1.573 1.12-2.2a5.258 5.258 0 0 1 1.75-1.48c.687-.36 1.45-.54 2.29-.54.64 0 1.19.163 1.65.49.46.327.69.81.69 1.45 0 .947-.47 1.693-1.41 2.24-.94.547-2.457.9-4.55 1.06-.053.227-.09.447-.11.66-.02.213-.03.42-.03.62 0 .8.203 1.453.61 1.96.407.507 1.003.76 1.79.76.253 0 .503-.04.75-.12.247-.08.48-.18.7-.3.22-.12.42-.247.6-.38s.337-.253.47-.36l.32.38zm-2.1-7.6c-.573.013-1.107.283-1.6.81-.493.527-.913 1.43-1.26 2.71 1.293-.04 2.3-.263 3.02-.67.72-.407 1.08-.97 1.08-1.69 0-.28-.083-.54-.25-.78-.167-.24-.497-.367-.99-.38zm10.62 8c.147.12.393.25.74.39s.713.203 1.1.19c.44.013.867-.02 1.28-.1a3.42 3.42 0 0 0 1.12-.42c.333-.2.6-.463.8-.79.2-.327.3-.737.3-1.23 0-.547-.13-1.007-.39-1.38a4.264 4.264 0 0 0-.97-.99 13.5 13.5 0 0 0-1.25-.82 9.272 9.272 0 0 1-1.25-.87 4.382 4.382 0 0 1-.97-1.13c-.26-.433-.39-.97-.39-1.61 0-.613.11-1.17.33-1.67.22-.5.547-.93.98-1.29.433-.36.963-.64 1.59-.84.627-.2 1.34-.3 2.14-.3.813 0 1.54.063 2.18.19.64.127 1.14.283 1.5.47-.053.227-.13.49-.23.79l-.31.93c-.107.32-.22.63-.34.93-.12.3-.227.563-.32.79h-.52l-.24-2.74a3.181 3.181 0 0 0-.87-.24 7.722 7.722 0 0 0-1.15-.08c-.4 0-.777.047-1.13.14-.353.093-.66.237-.92.43s-.463.437-.61.73c-.147.293-.22.64-.22 1.04 0 .533.13.977.39 1.33.26.353.583.67.97.95.387.28.803.55 1.25.81.447.26.863.557 1.25.89.387.333.71.737.97 1.21s.39 1.057.39 1.75c0 .627-.123 1.193-.37 1.7-.247.507-.6.943-1.06 1.31-.46.367-1.027.65-1.7.85-.673.2-1.437.3-2.29.3-.427 0-.837-.027-1.23-.08a7.71 7.71 0 0 1-1.08-.22 6.535 6.535 0 0 1-.87-.31 2.742 2.742 0 0 1-.58-.33c.053-.24.13-.523.23-.85.1-.327.21-.657.33-.99.12-.333.24-.657.36-.97.12-.313.233-.583.34-.81h.52l.2 2.94zm17.98-1.64c.493-.8.913-1.573 1.26-2.32.347-.747.647-1.5.9-2.26 0-.147-.017-.34-.05-.58l-.1-.72c-.033-.24-.07-.463-.11-.67a3.95 3.95 0 0 0-.1-.43c.187-.08.387-.14.6-.18.213-.04.42-.06.62-.06.4 0 .753.08 1.06.24-.2.827-.467 1.67-.8 2.53-.333.86-.713 1.717-1.14 2.57a33.437 33.437 0 0 1-1.4 2.52 29.846 29.846 0 0 1-1.62 2.38l-.94.24-.84-5.68V8.92h-.06l-.8 1.64c-.44.92-.887 1.83-1.34 2.73-.453.9-.907 1.803-1.36 2.71l-1.1.24-.96-9.08L92.84 7v-.5a5.65 5.65 0 0 1 .89-.46c.193-.08.393-.147.6-.2.207-.053.403-.08.59-.08.293 0 .517.07.67.21.153.14.243.323.27.55l.54 6.32-.08 1.44h.04l.6-1.46 3.24-6.58.68-.24c.16 1.133.293 2.07.4 2.81.107.74.18 1.283.22 1.63l.32 2.4.02 1.44h.04l.52-1.3zm5.28-6v-.5c.2-.08.427-.163.68-.25.253-.087.513-.163.78-.23s.52-.123.76-.17c.24-.047.453-.07.64-.07l.36.24-1.88 8.88h1.48v.52c-.28.213-.607.387-.98.52s-.74.2-1.1.2c-.387 0-.663-.087-.83-.26a.84.84 0 0 1-.25-.6c0-.267.02-.527.06-.78.04-.253.093-.533.16-.84l1.4-6.46-1.28-.2zm1.62-4.44c0-.347.107-.62.32-.82.213-.2.493-.3.84-.3.373 0 .667.1.88.3.213.2.32.473.32.82 0 .333-.107.593-.32.78-.213.187-.507.28-.88.28-.347 0-.627-.093-.84-.28-.213-.187-.32-.447-.32-.78zM114.4 7h-1.46v-.52c.267-.147.55-.277.85-.39.3-.113.583-.203.85-.27l.14-.7c.173-.827.41-1.51.71-2.05.3-.54.65-.967 1.05-1.28.4-.313.84-.53 1.32-.65.48-.12.993-.18 1.54-.18.227 0 .497.027.81.08.313.053.577.133.79.24a3.648 3.648 0 0 1-.21.91 1.898 1.898 0 0 1-.57.81l-1.52-1.24c-.24.067-.46.14-.66.22-.2.08-.39.23-.57.45-.18.22-.35.53-.51.93-.16.4-.313.947-.46 1.64l-.2 1h2.22c.067.333 0 .667-.2 1h-2.22l-1.28 8.14c-.147.947-.393 1.733-.74 2.36-.347.627-.717 1.133-1.11 1.52-.393.387-.777.673-1.15.86-.373.187-.66.307-.86.36l-.18-.44c.16-.08.353-.223.58-.43.227-.207.45-.483.67-.83.22-.347.427-.77.62-1.27a8.67 8.67 0 0 0 .45-1.75L114.4 7zm4.44-.52c.267-.147.55-.28.85-.4.3-.12.597-.213.89-.28l.32-1.52c.187-.147.403-.277.65-.39.247-.113.503-.223.77-.33l.42.24-.48 2.2h2.48c.027.16.027.327 0 .5s-.093.34-.2.5h-2.48l-1.26 5.8a9.809 9.809 0 0 0-.12.67c-.027.193-.04.37-.04.53 0 .347.1.6.3.76.2.16.42.24.66.24.333 0 .69-.063 1.07-.19.38-.127.73-.27 1.05-.43l.22.36c-.12.173-.3.347-.54.52a5.702 5.702 0 0 1-1.75.84c-.327.093-.637.14-.93.14-.587 0-1.047-.133-1.38-.4-.333-.267-.5-.68-.5-1.24 0-.187.017-.393.05-.62.033-.227.077-.46.13-.7L120.34 7h-1.52l.02-.52z" fill="#8091A5"/>
  </g>
</svg>
