<?xml version="1.0" encoding="utf-8"?><svg xmlns="http://www.w3.org/2000/svg" xmlns:xlink="http://www.w3.org/1999/xlink"><symbol viewBox="0 0 5 8" id="arrow" xmlns="http://www.w3.org/2000/svg"><path fill="none" stroke="currentColor" stroke-width="1.5" d="M1 7l3-2.89L1 1"/></symbol><symbol viewBox="0 0 10 5" id="arrow-filled" xmlns="http://www.w3.org/2000/svg"><path d="M0 0l5 5 5-5z"/></symbol><symbol viewBox="0 0 24 24" id="cross" xmlns="http://www.w3.org/2000/svg"><path d="M23.707 22.293L13.414 12 23.706 1.707A1 1 0 1 0 22.292.293L12 10.586 1.706.292A1 1 0 0 0 .292 1.706L10.586 12 .292 22.294a1 1 0 1 0 1.414 1.414L12 13.414l10.293 10.292a1 1 0 1 0 1.414-1.413z" fill-rule="nonzero" fill="currentColor"/></symbol><symbol viewBox="0 0 20 20" id="done" xmlns="http://www.w3.org/2000/svg"><g fill="none" fill-rule="evenodd"><path d="M0 0h20v20H0z"/><path fill="currentColor" fill-rule="nonzero" d="M9.992 1.667c-4.6 0-8.325 3.733-8.325 8.333s3.725 8.333 8.325 8.333c4.608 0 8.341-3.733 8.341-8.333S14.6 1.667 9.992 1.667zm.008 15A6.665 6.665 0 0 1 3.333 10 6.665 6.665 0 0 1 10 3.333 6.665 6.665 0 0 1 16.667 10 6.665 6.665 0 0 1 10 16.667z"/><path stroke="currentColor" stroke-width="1.333" d="M13.333 7.5l-5 5-1.666-1.786"/></g></symbol><symbol viewBox="0 0 24 24" id="duration" xmlns="http://www.w3.org/2000/svg"><g fill="none" fill-rule="evenodd"><path fill="currentColor" fill-rule="nonzero" d="M11.99 2C6.47 2 2 6.48 2 12s4.47 10 9.99 10C17.52 22 22 17.52 22 12S17.52 2 11.99 2zM12 20c-4.42 0-8-3.58-8-8s3.58-8 8-8 8 3.58 8 8-3.58 8-8 8z"/><path d="M0 0h24v24H0z"/><path fill="currentColor" fill-rule="nonzero" d="M12.5 7H11v6l5.25 3.15.75-1.23-4.5-2.67z"/></g></symbol><symbol viewBox="0 0 20 20" id="error" xmlns="http://www.w3.org/2000/svg"><g fill="none" fill-rule="evenodd"><path d="M-2-2h24v24H-2z"/><path fill="currentColor" fill-rule="nonzero" d="M10 0C4.48 0 0 4.48 0 10s4.48 10 10 10 10-4.48 10-10S15.52 0 10 0zm1 15H9v-2h2v2zm0-4H9V5h2v6z"/></g></symbol><symbol viewBox="0 0 24 24" id="facebook" xmlns="http://www.w3.org/2000/svg"><g fill="none" fill-rule="evenodd"><path fill="currentColor" fill-rule="nonzero" d="M12 0C5.383 0 0 5.383 0 12s5.383 12 12 12 12-5.383 12-12S18.617 0 12 0zm3.595 11.5H13.5v7h-3v-7h-2v-2h2V8.336c0-1.1.352-2.819 2.649-2.819l2.351.007V7.83h-1.408c-.244 0-.592.123-.592.647V9.5h2.339l-.244 2z"/><path d="M0 0h24v24H0z"/></g></symbol><symbol viewBox="0 0 33 33" id="github" xmlns="http://www.w3.org/2000/svg"><path d="M16.608.455C7.614.455.32 7.748.32 16.745c0 7.197 4.667 13.302 11.14 15.456.815.15 1.112-.353 1.112-.785 0-.386-.014-1.411-.022-2.77-4.531.984-5.487-2.184-5.487-2.184-.741-1.882-1.809-2.383-1.809-2.383-1.479-1.01.112-.99.112-.99 1.635.115 2.495 1.679 2.495 1.679 1.453 2.489 3.813 1.77 4.741 1.353.148-1.052.569-1.77 1.034-2.177-3.617-.411-7.42-1.809-7.42-8.051 0-1.778.635-3.233 1.677-4.371-.168-.412-.727-2.069.16-4.311 0 0 1.367-.438 4.479 1.67a15.602 15.602 0 0 1 4.078-.549 15.62 15.62 0 0 1 4.078.549c3.11-2.108 4.475-1.67 4.475-1.67.889 2.242.33 3.899.163 4.311C26.37 12.66 27 14.115 27 15.893c0 6.258-3.809 7.635-7.437 8.038.584.503 1.105 1.497 1.105 3.017 0 2.177-.02 3.934-.02 4.468 0 .436.294.943 1.12.784 6.468-2.159 11.131-8.26 11.131-15.455 0-8.997-7.294-16.29-16.291-16.29" fill="currentColor" fill-rule="evenodd"/></symbol><symbol viewBox="0 0 20 20" id="info" xmlns="http://www.w3.org/2000/svg"><g fill="none" fill-rule="evenodd"><path d="M-2 22h24V-2H-2z"/><path fill="currentColor" fill-rule="nonzero" d="M10 20C4.48 20 0 15.52 0 10S4.48 0 10 0s10 4.48 10 10-4.48 10-10 10zm1-15H9v2h2V5zm0 4H9v6h2V9z" opacity=".6"/></g></symbol><symbol viewBox="0 0 24 24" id="menu-hamburger" xmlns="http://www.w3.org/2000/svg"><g fill="none" fill-rule="evenodd"><path d="M0 0h24v24H0z"/><path fill="currentColor" fill-rule="nonzero" d="M3 18h18v-2H3v2zm0-5h18v-2H3v2zm0-7v2h18V6H3z"/></g></symbol><symbol viewBox="0 0 24 24" id="skill-level" xmlns="http://www.w3.org/2000/svg"><g fill="none" fill-rule="evenodd"><path fill="currentColor" fill-rule="nonzero" d="M19 3H5c-1.1 0-2 .9-2 2v14c0 1.1.9 2 2 2h14c1.1 0 2-.9 2-2V5c0-1.1-.9-2-2-2zM9 17H7v-7h2v7zm4 0h-2V7h2v10zm4 0h-2v-4h2v4z"/><path d="M0 0h24v24H0z"/></g></symbol><symbol viewBox="0 0 20 20" id="success" xmlns="http://www.w3.org/2000/svg"><path fill="none" d="M-1-1h582v402H-1z"/><path fill="currentColor" fill-rule="evenodd" d="M10 15.5c-2.33 0-4.31-1.46-5.11-3.5h10.22c-.8 2.04-2.78 3.5-5.11 3.5M13.5 9a1.5 1.5 0 1 1 0-3 1.5 1.5 0 1 1 0 3m-7 0a1.5 1.5 0 1 1 0-3 1.5 1.5 0 1 1 0 3m3.5 9c4.42 0 8-3.58 8-8s-3.58-8-8-8-8 3.58-8 8 3.58 8 8 8m.01-18C15.53 0 20 4.48 20 10s-4.47 10-9.99 10C4.48 20 0 15.52 0 10S4.48 0 10.01 0"/></symbol><symbol viewBox="0 0 24 24" id="twitter" xmlns="http://www.w3.org/2000/svg"><g fill="none" fill-rule="evenodd"><path fill="currentColor" fill-rule="nonzero" d="M12 0C5.383 0 0 5.383 0 12s5.383 12 12 12 12-5.383 12-12S18.617 0 12 0zm5.262 9.385c.006.113.008.226.008.34 0 3.477-2.647 7.489-7.488 7.489a7.452 7.452 0 0 1-4.035-1.184 5.294 5.294 0 0 0 3.897-1.089 2.637 2.637 0 0 1-2.458-1.829c.397.075.803.061 1.188-.046a2.631 2.631 0 0 1-2.111-2.579v-.035c.355.197.762.315 1.192.33a2.632 2.632 0 0 1-.815-3.514 7.463 7.463 0 0 0 5.425 2.75 2.632 2.632 0 0 1 4.486-2.399c.6-.119 1.95-.266 1.95-.266-.354.529-.725 1.66-1.239 2.032z"/><path d="M0 0h24v24H0z"/></g></symbol></svg>